<mxfile host="app.diagrams.net" agent="Mozilla/5.0 (Macintosh; Intel Mac OS X 10_15_7) AppleWebKit/605.1.15 (KHTML, like Gecko) Version/18.2 Safari/605.1.15" version="26.0.10">
  <diagram name="Page-1" id="YcOQwgu5KpmHTNcDPHYn">
    <mxGraphModel dx="1232" dy="1187" grid="1" gridSize="10" guides="1" tooltips="1" connect="1" arrows="1" fold="1" page="1" pageScale="1" pageWidth="1100" pageHeight="850" math="0" shadow="0">
      <root>
        <mxCell id="0" />
        <mxCell id="1" parent="0" />
        <mxCell id="hl2d3mC8qUtHHs-yw8JI-4" style="edgeStyle=orthogonalEdgeStyle;rounded=0;orthogonalLoop=1;jettySize=auto;html=1;strokeColor=#0B4D6A;" edge="1" parent="1" source="hl2d3mC8qUtHHs-yw8JI-2" target="hl2d3mC8qUtHHs-yw8JI-3">
          <mxGeometry relative="1" as="geometry" />
        </mxCell>
        <mxCell id="hl2d3mC8qUtHHs-yw8JI-2" value="&lt;span style=&quot;color: light-dark(rgb(0, 0, 0), rgb(0, 0, 204));&quot;&gt;&lt;font style=&quot;font-size: 16px;&quot;&gt;Kubernetes Cluster&lt;/font&gt;&lt;/span&gt;" style="aspect=fixed;sketch=0;html=1;dashed=0;whitespace=wrap;verticalLabelPosition=bottom;verticalAlign=top;fillColor=#09555B;strokeColor=#BAC8D3;points=[[0.005,0.63,0],[0.1,0.2,0],[0.9,0.2,0],[0.5,0,0],[0.995,0.63,0],[0.72,0.99,0],[0.5,1,0],[0.28,0.99,0]];shape=mxgraph.kubernetes.icon2;prIcon=hpa;fontColor=#EEEEEE;labelBackgroundColor=none;" vertex="1" parent="1">
          <mxGeometry x="70" y="245" width="145.83" height="140" as="geometry" />
        </mxCell>
        <mxCell id="hl2d3mC8qUtHHs-yw8JI-3" value="&lt;span style=&quot;color: light-dark(rgb(0, 0, 0), rgb(0, 0, 204));&quot;&gt;&lt;font style=&quot;font-size: 16px;&quot;&gt;Hadoop Cluser&lt;/font&gt;&lt;/span&gt;" style="sketch=0;outlineConnect=0;fontColor=#EEEEEE;fillColor=#09555B;strokeColor=none;dashed=0;verticalLabelPosition=bottom;verticalAlign=top;align=center;html=1;fontSize=12;fontStyle=0;aspect=fixed;pointerEvents=1;shape=mxgraph.aws4.hdfs_cluster;labelBackgroundColor=none;" vertex="1" parent="1">
          <mxGeometry x="420" y="210" width="210" height="210" as="geometry" />
        </mxCell>
        <mxCell id="hl2d3mC8qUtHHs-yw8JI-5" value="&lt;font style=&quot;font-size: 15px; color: light-dark(rgb(0, 0, 0), rgb(0, 0, 204));&quot;&gt;Map: app layer sends the details to a distributed cluster like Hadoop&lt;/font&gt;&lt;div&gt;&lt;font style=&quot;font-size: 15px; color: light-dark(rgb(0, 0, 0), rgb(0, 0, 204));&quot;&gt;for the cluster we use a CRDT, or in each server, we use keep a local counter&amp;nbsp;&lt;/font&gt;&lt;/div&gt;&lt;div&gt;&lt;font style=&quot;font-size: 15px; color: light-dark(rgb(0, 0, 0), rgb(0, 0, 204));&quot;&gt;At regular intervals we run a reduce job to calculate the sums and write to a persistent storage&lt;/font&gt;&lt;/div&gt;" style="whiteSpace=wrap;html=1;strokeColor=#BAC8D3;fontColor=#EEEEEE;fillColor=#09555B;align=left;" vertex="1" parent="1">
          <mxGeometry x="800" y="160" width="210" height="290" as="geometry" />
        </mxCell>
      </root>
    </mxGraphModel>
  </diagram>
</mxfile>
